<?xml version="1.0" standalone="no"?>
<!DOCTYPE svg PUBLIC "-//W3C//DTD SVG 20010904//EN"
 "http://www.w3.org/TR/2001/REC-SVG-20010904/DTD/svg10.dtd">
<svg version="1.0" xmlns="http://www.w3.org/2000/svg"
 width="70.000000pt" height="70.000000pt" viewBox="0 0 70.000000 70.000000"
 preserveAspectRatio="xMidYMid meet">
<metadata>
Created by potrace 1.14, written by Peter Selinger 2001-2017
</metadata>
<g transform="translate(0.000000,70.000000) scale(0.100000,-0.100000)"
fill="#000000" stroke="none">
<path d="M80 670 c-10 -6 -8 -15 9 -39 31 -43 60 -61 98 -61 29 0 33 -3 31
-25 -2 -26 -12 -32 -23 -15 -3 6 -25 10 -48 10 -59 0 -104 -30 -129 -87 -28
-64 -21 -124 26 -214 l37 -70 -29 4 c-36 6 -55 -4 -47 -25 4 -10 25 -19 53
-23 38 -6 44 -9 31 -18 -8 -7 -18 -20 -22 -30 -10 -27 20 -33 51 -10 50 37 68
37 88 3 10 -16 32 -34 49 -39 16 -6 113 -9 213 -9 162 1 187 4 207 20 16 12
22 26 20 45 -3 27 -37 63 -60 63 -7 0 0 14 16 31 30 32 49 84 49 133 0 32 -36
116 -50 116 -12 0 -40 77 -40 111 0 80 -62 134 -119 104 -30 -15 -46 -47 -55
-109 -3 -21 -7 -41 -10 -43 -3 -3 -19 6 -36 21 -34 28 -94 35 -131 16 -21 -12
-23 -4 -20 92 1 26 -3 50 -9 53 -6 4 -10 -8 -10 -28 l0 -35 -31 29 c-17 16
-39 29 -48 30 -9 0 -23 2 -32 4 -9 1 -22 -1 -29 -5z"/>
</g>
</svg>
